<?xml version="1.0" standalone="no"?>
<!DOCTYPE svg PUBLIC "-//W3C//DTD SVG 1.1//EN" "http://www.w3.org/Graphics/SVG/1.1/DTD/svg11.dtd">
<svg width="100%" height="100%" viewBox="0 0 128 128" version="1.1" xmlns="http://www.w3.org/2000/svg" xmlns:xlink="http://www.w3.org/1999/xlink" xml:space="preserve" style="fill-rule:evenodd;clip-rule:evenodd;stroke-linejoin:round;stroke-miterlimit:1.41421;">
    <g id="Me SeExpr">
        <path d="M29.3647,58.0124C29.1005,58.4351 28.8231,58.7323 28.5325,58.904C28.2419,59.0757 27.872,59.1616 27.4229,59.1616C26.9474,59.1616 26.4388,59.0295 25.8972,58.7653C25.3556,58.5011 24.7282,58.2039 24.0149,57.8737C23.3015,57.5434 22.4892,57.2462 21.5777,56.982C20.6663,56.7179 19.5897,56.5858 18.348,56.5858C16.4194,56.5858 14.9003,56.9953 13.7907,57.8142C12.6811,58.6332 12.1263,59.7032 12.1263,61.0241C12.1263,61.896 12.4103,62.6291 12.9783,63.2235C13.5463,63.818 14.2993,64.3397 15.2372,64.7889C16.175,65.238 17.2384,65.6409 18.4272,65.9975C19.6161,66.3542 20.8314,66.7439 22.0731,67.1666C23.3148,67.5893 24.53,68.0714 25.7189,68.613C26.9077,69.1546 27.9711,69.8415 28.909,70.6737C29.8469,71.5059 30.5998,72.5032 31.1678,73.6656C31.7358,74.8281 32.0198,76.2283 32.0198,77.8663C32.0198,79.8213 31.6632,81.6244 30.9498,83.2755C30.2365,84.9267 29.193,86.3534 27.8192,87.5554C26.4454,88.7575 24.748,89.6954 22.7269,90.369C20.7059,91.0427 18.3876,91.3796 15.7721,91.3796C14.3719,91.3796 13.0047,91.2541 11.6706,91.0031C10.3364,90.7521 9.05511,90.4021 7.82663,89.9529C6.59814,89.5038 5.46213,88.9754 4.41858,88.3678C3.37503,87.7602 2.45697,87.0997 1.6644,86.3864L3.92322,82.6613C4.21383,82.2122 4.55728,81.8687 4.95356,81.631C5.34985,81.3932 5.85181,81.2743 6.45944,81.2743C7.06708,81.2743 7.64169,81.446 8.18328,81.7895C8.72487,82.1329 9.35232,82.5028 10.0656,82.8991C10.7789,83.2954 11.6178,83.6652 12.582,84.0087C13.5463,84.3521 14.7682,84.5238 16.2477,84.5238C17.4101,84.5238 18.4074,84.3851 19.2396,84.1077C20.0718,83.8303 20.7587,83.4671 21.3003,83.018C21.8419,82.5688 22.2382,82.0471 22.4892,81.4526C22.7401,80.8582 22.8656,80.244 22.8656,79.6099C22.8656,78.6588 22.5816,77.8795 22.0136,77.2718C21.4456,76.6642 20.6927,76.1358 19.7548,75.6867C18.8169,75.2376 17.747,74.8347 16.5449,74.478C15.3428,74.1214 14.1143,73.7317 12.8594,73.309C11.6045,72.8863 10.3761,72.3909 9.17399,71.8229C7.97193,71.2549 6.90196,70.535 5.96409,69.6632C5.02621,68.7913 4.27327,67.7214 3.70526,66.4533C3.13725,65.1851 2.85325,63.6528 2.85325,61.8563C2.85325,60.192 3.18349,58.6068 3.84396,57.1009C4.50444,55.595 5.47534,54.2807 6.75666,53.1579C8.03798,52.0351 9.63633,51.1368 11.5517,50.4632C13.4671,49.7895 15.6797,49.4526 18.1895,49.4526C20.9899,49.4526 23.5393,49.915 25.8378,50.8396C28.1362,51.7643 30.0516,52.9796 31.5839,54.4854L29.3647,58.0124Z" style="fill:#999;fill-rule:nonzero;"/>
        <path d="M47.3164,65.8985C47.3164,71.3408 47.9769,76.6906 49.2978,81.948C50.6188,87.2054 52.5077,92.1457 54.9647,96.769C55.1496,97.1125 55.2751,97.4295 55.3412,97.7201C55.4072,98.0107 55.4402,98.2749 55.4402,98.5127C55.4402,99.0411 55.3082,99.4704 55.044,99.8006C54.7798,100.131 54.4627,100.402 54.0929,100.613L49.7337,103.268C47.7787,100.256 46.1143,97.2314 44.7406,94.1932C43.3668,91.155 42.244,88.0904 41.3721,84.9994C40.5003,81.9084 39.8596,78.7777 39.4502,75.6074C39.0407,72.4372 38.8359,69.2008 38.8359,65.8985C38.8359,62.5961 39.0407,59.3531 39.4502,56.1697C39.8596,52.9862 40.5003,49.8489 41.3721,46.7579C42.244,43.6669 43.3668,40.6089 44.7406,37.5839C46.1143,34.5589 47.7787,31.5406 49.7337,28.5288L54.0929,31.1443C54.4627,31.3556 54.7798,31.6264 55.044,31.9567C55.3082,32.2869 55.4402,32.703 55.4402,33.205C55.4402,33.7069 55.2685,34.3013 54.9251,34.9882C52.4945,39.6116 50.6188,44.5585 49.2978,49.8291C47.9769,55.0997 47.3164,60.4561 47.3164,65.8985Z" style="fill:#999;fill-rule:nonzero;"/>
        <path d="M100.339,33.4427L100.339,41.9232L74.9375,41.9232L74.9375,57.8142L94.9498,57.8142L94.9498,66.0173L74.9375,66.0173L74.9375,82.2254L100.339,82.2254L100.339,90.7455L64.1981,90.7455L64.1981,33.4427L100.339,33.4427Z" style="fill:#999;fill-rule:nonzero;"/>
        <path d="M114.883,65.8985C114.883,60.4561 114.222,55.0997 112.902,49.8291C111.581,44.5585 109.705,39.6116 107.274,34.9882C106.931,34.3013 106.759,33.7069 106.759,33.205C106.759,32.703 106.891,32.2869 107.155,31.9567C107.42,31.6264 107.737,31.3556 108.107,31.1443L112.466,28.5288C114.421,31.5406 116.085,34.5589 117.459,37.5839C118.833,40.6089 119.955,43.6669 120.827,46.7579C121.699,49.8489 122.34,52.9862 122.749,56.1697C123.159,59.3531 123.363,62.5961 123.363,65.8985C123.363,69.2008 123.159,72.4372 122.749,75.6074C122.34,78.7777 121.699,81.9084 120.827,84.9994C119.955,88.0904 118.833,91.155 117.459,94.1932C116.085,97.2314 114.421,100.256 112.466,103.268L108.107,100.613C107.737,100.402 107.42,100.131 107.155,99.8006C106.891,99.4704 106.759,99.0411 106.759,98.5127C106.759,98.2749 106.792,98.0107 106.858,97.7201C106.924,97.4295 107.05,97.1125 107.235,96.769C109.692,92.1457 111.581,87.2054 112.902,81.948C114.222,76.6906 114.883,71.3408 114.883,65.8985Z" style="fill:#999;fill-rule:nonzero;"/>
    </g>
</svg>
